 <svg xmlns="http://www.w3.org/2000/svg" xmlns:xlink="http://www.w3.org/1999/xlink"
      preserveAspectRatio="xMidYMid meet" version="1.0" viewBox="0.3 1.0 132.5 298.0" zoomAndPan="magnify"
      style="fill: rgb(52, 75, 56);" original_string_length="23440" width="121.83288976990264px"
      height="273.5024056059038px">
      <g id="__id1_sbdoq9ef08">
        <path
          d="M95.71,120.32c-0.02-0.47-0.32-0.91-0.74-1.12c-0.33-0.16-0.36-0.68-0.09-0.92c0.36-0.31,0.97-0.08,1.21,0.33 c0.24,0.41,0.22,0.92,0.18,1.4c-0.07,0.9-0.21,1.91-0.91,2.48C95.39,121.76,95.5,121.02,95.71,120.32z"
          style="fill: inherit;" />
        <path
          d="M91.99,120.71c-0.68,0.79-0.45,2.07-1.08,2.9c-0.09-1.37,0.26-2.77,0.98-3.95c0.13-0.21,0.29-0.43,0.51-0.54 c0.3-0.15,0.72-0.03,0.88,0.27c0.15,0.3-0.03,0.73-0.36,0.79C92.56,120.24,92.23,120.43,91.99,120.71z"
          style="fill: inherit;" />
        <path
          d="M90.62,126.28c0.13,0.25,0,0.57-0.2,0.77s-0.45,0.35-0.64,0.55c-0.62,0.67-0.44,1.84-1.08,2.49 c-0.06-1.08,0.11-2.17,0.51-3.17c0.12-0.31,0.27-0.62,0.55-0.8C90.04,125.95,90.47,125.99,90.62,126.28z"
          style="fill: inherit;" />
        <path
          d="M92.24,131.48c0.04-0.08,0.13-0.11,0.22-0.15c0.76-0.3,1.42-0.86,1.85-1.56c0.31,0.15,0.42,0.56,0.31,0.89 s-0.39,0.57-0.68,0.74c-0.37,0.22-0.78,0.37-1.2,0.42C92.49,131.86,92.12,131.7,92.24,131.48z"
          style="fill: inherit;" />
        <path
          d="M91.44,130.39c0.26-0.46,0.52-0.92,0.77-1.39c0.12-0.22,0.5-0.16,0.63,0.06c0.13,0.22,0.07,0.5-0.04,0.73 c-0.22,0.49-0.64,0.88-1.14,1.08c-0.05,0.02-0.11,0.04-0.17,0.03C91.29,130.86,91.34,130.56,91.44,130.39z"
          style="fill: inherit;" />
        <path
          d="M98.08,129.42c-0.32,0.32-0.63,0.64-0.95,0.96c-0.16,0.16-0.46-0.02-0.48-0.25c-0.02-0.22,0.15-0.42,0.33-0.56 c0.18-0.14,0.38-0.25,0.51-0.44c0.21-0.33,0.22-0.9,0.61-0.93c0.27-0.02,0.45,0.3,0.41,0.56 C98.46,129.02,98.26,129.23,98.08,129.42z"
          style="fill: inherit;" />
        <path
          d="M102.18,125.06c0.22,0.04,0.34,0.3,0.3,0.52c-0.03,0.22-0.18,0.41-0.32,0.58c-0.35,0.42-0.72,0.81-1.12,1.18 c-0.19-0.14-0.15-0.43-0.02-0.63c0.13-0.19,0.32-0.34,0.43-0.54c0.12-0.22,0.12-0.47,0.2-0.7S101.94,125.01,102.18,125.06z"
          style="fill: inherit;" />
        <path
          d="M96.37,123.38c0.15,0.1,0.15,0.32,0.12,0.5c-0.14,0.83-0.6,1.61-1.28,2.12c-0.17-0.22-0.07-0.55,0.09-0.77 c0.16-0.23,0.38-0.43,0.46-0.7c0.07-0.26,0-0.53,0.05-0.79C95.86,123.48,96.16,123.23,96.37,123.38z"
          style="fill: inherit;" />
        <path
          d="M90.13,130.9c-0.19-0.05-0.28-0.27-0.33-0.46c-0.18-0.68-0.26-1.55,0.31-1.97c0.37,0.16,0.35,0.68,0.28,1.08 C90.3,130,90.21,130.45,90.13,130.9z"
          style="fill: inherit;" />
        <path
          d="M91.37,129.39c-0.19,0-0.23-0.26-0.21-0.45c0.08-0.68,0.15-1.36,0.23-2.04c0.01-0.1,0.05-0.23,0.16-0.24 c0.05,0,0.09,0.03,0.12,0.06c0.38,0.33,0.3,0.92,0.18,1.41c-0.07,0.31-0.15,0.63-0.22,0.94C91.59,129.21,91.52,129.38,91.37,129.39 z"
          style="fill: inherit;" />
        <path
          d="M106.5,116.33c-0.05,0.16-0.1,0.33-0.23,0.44c-0.13,0.11-0.36,0.1-0.43-0.06c-0.04-0.1,0-0.2,0.04-0.3 c0.21-0.51,0.49-1,0.57-1.54c0.08-0.54-0.1-1.17-0.59-1.42c0.01-0.47,0.66-0.78,1.03-0.49c0.4,0.31,0.3,0.92,0.16,1.4 C106.87,115.02,106.68,115.68,106.5,116.33z"
          style="fill: inherit;" />
        <path
          d="M51.05,84.87c3.8-11.84,12.56-22.01,23.71-27.53c11.15-5.51,24.55-6.3,36.27-2.14c-4.87-0.73-10.04,1.02-13.47,4.55 c-3.65,3.75-8.85,5.96-14.08,5.97c-3.52,0.01-7-0.92-10.52-0.81c-9.64,0.3-17.56,8.54-20.62,17.69s-2.29,19.07-1.49,28.68 c2.06-7.74,6.73-14.75,13.07-19.64c-14.56,12.13-15.88,36.97-2.68,50.57c6.93,7.14,3.37,18.76,2.81,28.7 c-0.51,8.97,1.97,18.09,6.94,25.58c-0.95-18.45,3.07-37.14,11.53-53.57c-3.25-3.41-8.65-4.58-13.02-2.81 c-0.26-5.82,2.23-11.71,6.58-15.58c-4.67-1.6-8.12-6.26-8.29-11.19c-0.13-3.54,1.55-7.29,4.71-8.9c3.16-1.6,7.69-0.32,8.93,3 c1.93-4.32,3.87-8.63,5.8-12.95c0.75-1.67,1.57-3.43,3.09-4.47c3.47-2.36,8.37,0.57,10.2,4.34c1.84,3.78,1.88,8.18,3.36,12.11 c3.14-1.76,6.37-3.56,9.94-4c3.57-0.45,7.59,0.78,9.43,3.87c2.92,4.92-0.94,10.97-4.6,15.36c1.65,3.24,5.3,4.82,8.31,6.85 c3.02,2.04,5.8,5.69,4.39,9.05c-1.06,2.52-3.97,3.6-6.57,4.42c-2.53,0.79-5.06,1.59-7.58,2.38c1.6,3.93-1.34,8.7-5.4,9.97 c-4.05,1.27-8.57-0.32-11.81-3.07c-3.24-2.75-5.43-6.5-7.5-10.21c-6.19,1.19-11.1,6.19-13.82,11.87 c-2.72,5.68-3.6,12.05-4.45,18.29c6.47-6.1,15.52-9.37,24.39-8.83c-9.38,1.07-20.35,3.24-24.29,11.82 c-1.23,2.69-1.57,5.7-1.83,8.65c-1.4,15.76-1.14,31.67,0.76,47.38c6.96-18.35,20.2-34.24,36.99-44.41 c-2.76,13.2-6.49,27.84-17.95,34.95c-3.76,2.33-8.08,3.64-11.87,5.92c-3.79,2.29-7.19,6.03-7.21,10.45 c-0.07,20.67-1.51,41.34-4.31,61.82c0.35-9.43,0.7-18.85,1.05-28.28c0.11-2.97,0.17-6.15-1.38-8.69 c-3.93-6.42-13.59-3.84-21.05-4.92c-10.06-1.46-17-10.52-22.82-18.86c7.19,3.07,15.38,3.01,22.66,5.86 c8.36,3.27,14.78,10.03,20.91,16.59c-4.62-15.91-15.42-29.93-29.62-38.45c-4.46-2.68-9.29-4.88-13.03-8.49 c-7.57-7.33-9.41-19.27-17.36-26.18c9.96,6.09,20.14,12.38,27.32,21.58c6.65,8.53,10.58,19.39,19.11,26.05 c-4.19-7.95-4.75-17.74-1.48-26.11c-3.24-2.49-6.49-4.99-9.73-7.48c-2.2,1.91-6.41,0.95-6.98-1.91c-0.56-2.86,4.08-5.1,5.59-2.61 c2.81,4.65,6.78,8.6,11.46,11.38c1.44-2.55,2.89-5.1,4.33-7.65c-3.62-5.39-9.05-9.53-15.21-11.6c3.31,0.25,6.52,1.71,8.89,4.05 c-4.44-8.26-10.52-17.6-19.89-17.94c-1.58-0.06-1.17-2.92,0.39-3.2c1.56-0.28,2.95,0.95,4.06,2.08c1.11,1.13,2.5,2.36,4.06,2.08 c-0.56-6.92-8.85-11.98-15.26-9.31c-2.07,0.86-3.06-3.24-1.06-4.26c2-1.02,4.39,0.26,6.12,1.69c1.73,1.43,3.58,3.15,5.82,3.05 c1.08-5.71-3.23-11.31-8.48-13.79c-5.25-2.48-11.26-2.63-17.06-2.98c-2.96-0.18-6.36-0.69-7.89-3.22c-1.53-2.54,1.69-6.72,3.95-4.8 c-2.2-2.32-4.49-4.79-5.26-7.89s0.58-6.99,3.66-7.86c-1.93-3.9,1.64-8.7,5.87-9.71c4.23-1.01,8.6,0.56,12.66,2.11 c3.34-4.28,10.97-1.38,12.87,3.71c1.91,5.09,0.05,10.73-1.77,15.85c-1.82,5.12-3.62,10.79-1.62,15.84 c2.56,6.48,5.13,12.95,7.69,19.43c0.15-4.3,0.3-8.59,0.45-12.89c0.09-2.69,2.1-6.46,4.3-4.92c1.82,1.28,0.26,4.05-1.03,5.86 c-4.54,6.4-3.6,16.08,2.09,21.48c0.83-2.17-0.74-4.42-1.41-6.64c-0.67-2.22,0.83-5.56,2.98-4.68c-2.15,4.8-1.2,10.54,1.24,15.2 c2.44,4.66,6.2,8.47,9.91,12.21c2.28-3.45,4.56-6.9,6.84-10.35c-3.56,11.34-1.2,24.37,6.12,33.74c-0.3-21.97-7.23-43.24-14.1-64.11 c-0.88-2.68-1.78-5.4-3.36-7.73c-5.08-7.48-7.84-16.52-7.79-25.57c1.05,4.43,4.03,8.36,8,10.59 c-2.98-13.68-10.85-26.24-21.86-34.88c-2.95-2.31-6.27-4.41-10-4.78c-3.88-0.38-7.66,1.15-11.46,2.02 c-3.8,0.87-8.28,0.89-11.04-1.87c10.96-4.05,23.78-2.69,33.64,3.58c-7.3-9.27-15.04-20.42-12.17-31.87 c5.59,3.36,3.09,11.88,4.68,18.2c0.86,3.43,3.06,6.34,5.21,9.14c6.76,8.82,13.52,17.64,20.28,26.46 C42.46,101.98,49.76,75.09,35.2,58c5.2,5.81,8.93,12.92,10.75,20.5c0.43-6.25,1.88-12.42,4.25-18.22 c-2.12-1.73-3.92-3.86-5.28-6.23c1.1,0.11,2.15,0.63,2.91,1.43c-0.46-3.85-0.6-8.23,2.04-11.07c2.64-2.84,8.85-1.65,8.67,2.22 c1.11-2.26,1.63-4.82,1.49-7.34c-3.48-1.34-5.53-5.13-5.9-8.84c-0.37-3.71,0.62-7.41,1.61-11c7.44,4.24,9.79,15.36,4.7,22.24 c4.59-0.59,7.29-5.44,8.6-9.88c1.3-4.44,2.18-9.42,5.71-12.41c-1.11,4.93-2.21,9.86-3.32,14.78c4.23-4.72,10.49-7.56,16.83-7.63 c-8.33,6.31-20.44,7.69-26.39,16.27c-2.63,3.8-3.62,8.69-2.68,13.21c-7.67,5.1-11.73,14.39-12.68,23.56 c-0.94,9.17,0.82,18.37,2.57,27.42c-2.08-27.27,10.84-55.22,32.97-71.29c3.99-2.9,8.51-5.76,10.14-10.42 c3.12-8.93,12.83-13.84,22.12-15.68c5.73-1.14,13.09-2.83,13.84-8.62c-0.22,7.45-2.61,15.03-7.71,20.46s-13.12,8.36-20.29,6.33 c12.27,0.97,24.48-8.48,26.62-20.6c-7.28,1.33-14.68,2.7-21.25,6.11s-12.3,9.22-13.76,16.47C104.33,25.34,115.82,18,125.13,8.5 C114.75,23.82,93.8,27.3,79.11,38.54C64.56,49.68,57.16,67.6,51.05,84.87 M22.18,69.59c-0.73,2.3-0.99,4.74-0.77,7.14 c0.27,2.96,1.34,5.92,3.42,8.04c-1.11-3-1.93-6.11-2.45-9.27c0.05-0.14,0.26-0.16,0.37-0.06s0.15,0.26,0.17,0.4 c0.57,2.93,1.34,5.82,2.3,8.65c0.08-0.11,0.15-0.23,0.23-0.34C26.34,79.13,25.13,73.76,22.18,69.59 M98.72,148.17 c-0.83-3.25-1.28-6.59-1.35-9.94c0.52,2.6,1.03,5.2,1.55,7.8c0.27,1.34,0.56,2.74,1.44,3.79c0.56,0.66,1.31,1.13,2.07,1.54 c1.96,1.04,4.11,1.74,6.31,2.05c1.33,0.18,2.75,0.22,3.95-0.38c1.2-0.6,2.1-1.99,1.74-3.28c-0.16-0.6-0.56-1.1-0.94-1.58 c-3.02-3.8-6.05-7.62-9.57-10.96c0.47-0.18,0.95,0.18,1.32,0.52c3.82,3.51,7.36,7.33,10.57,11.4c1.19-2.43,0.85-5.4-0.36-7.82 c-1.2-2.42-3.17-4.37-5.24-6.11c-0.42-0.35-0.88-0.71-1.43-0.73c-2.38-0.07-4.65-0.98-6.97-1.54c-2.74-0.67-5.59-0.88-8.4-0.62 c2.2-1,4.74-0.8,7.13-0.44c1.62,0.24,3.24,0.55,4.84,0.91c1.56,0.36,3.22,0.76,4.73,0.21c-2.77-0.82-5.59-1.49-8.44-2.01 c-0.1-0.31,0.4-0.43,0.72-0.36c2,0.4,4,0.81,6,1.21c1.73,0.35,3.51,0.7,5.23,0.35c2.33-0.47,4.35-2.28,5.06-4.55 c0.71-2.27,0.09-4.91-1.56-6.62c-0.61-0.63-1.37-1.15-2.23-1.3c-1.76-0.31-3.39,0.93-4.69,2.17c-1.29,1.24-2.7,2.63-4.49,2.71 c2.45-1.51,4.69-3.37,6.64-5.49c-7.09,1.25-11.82,8.39-18.75,10.37c-0.18-0.56,0.43-1.02,0.94-1.31c4.44-2.53,7.59-7.21,8.26-12.28 c-1.29,2.11-2.89,4.02-4.73,5.67c-0.04-0.87,0.63-1.58,1.23-2.2c1.85-1.92,3.56-4.13,4.1-6.74c0.61-2.95-0.36-5.99-1.66-8.71 c-0.86-1.8-2.08-3.7-4.02-4.13c-2.44-0.54-4.71,1.51-5.9,3.7c-1.67,3.08-2.15,6.65-2.61,10.12c-0.24-4.11,0.79-8.28,2.93-11.79 c-2.29,0.52-4.28,2.2-5.18,4.37c-0.9,2.16-0.7,4.76,0.53,6.75c1.46,2.37,0.62,5.67,2.19,7.97c0.71,1.04,0.47,2.45-0.01,3.6 c-0.49,1.15-1.21,2.23-1.44,3.46c-0.23,1.23,0.22,2.74,1.41,3.15c1.3,0.45,2.61,0.91,3.74,1.68c1.13,0.77,2.08,1.92,2.32,3.27 c0.24,1.35-0.39,2.89-1.65,3.44c-0.58,0.25-0.54,1.08-0.36,1.69c0.73,2.56,2.13,4.93,4.03,6.8 C98.02,148.25,98.52,148.5,98.72,148.17 M95.6,217.2c1.16-0.87,2.29-1.8,3.18-2.95c1.9-2.44,2.53-5.61,3.1-8.65 c-2.3,1.05-4.6,2.11-6.9,3.16c-0.16-0.47,0.38-0.86,0.84-1.07c2.95-1.34,5.98-2.96,7.67-5.73c1.03-1.69,1.46-3.67,2.07-5.56 c1.01-3.14,2.53-6.11,4.49-8.76c-0.23-0.07-0.48,0.03-0.69,0.13c-8.04,3.68-14.73,9.88-20.15,16.88 c-5.42,6.99-9.68,14.8-13.91,22.57c-0.16,0.3-0.33,0.67-0.15,0.96c4.02-5.91,9.78-10.62,16.37-13.39c-0.1,0.66-0.78,1.04-1.38,1.34 c-5.41,2.7-10.15,6.73-13.69,11.64c2.9-1.44,5.81-2.89,8.71-4.33c1.3-0.65,2.6-1.29,3.87-1.99C91.32,220.2,93.52,218.78,95.6,217.2 M62.78,218.88c-1.6,5.31-6.79,9.31-7.2,14.85c-0.07,0.94,0.01,1.91,0.43,2.75c0.31,0.63,0.78,1.15,1.25,1.68 c6.57,7.46,11.33,16.5,13.79,26.13c1-9.78,1.37-19.63,0.93-29.45c-0.04-0.83-0.08-1.66-0.31-2.46c-0.21-0.71-0.56-1.37-0.92-2.01 C68.49,226.28,65.81,222.43,62.78,218.88 M118.18,117.12c-0.06-0.4,0.35-0.7,0.7-0.91c1.31-0.8,2.46-1.88,3.35-3.13 c1-1.4,1.68-3.17,1.26-4.84c-0.39-1.55-1.68-2.74-3.13-3.41c-1.45-0.67-3.05-0.9-4.63-1.12c-0.36-0.05-0.85-0.02-0.93,0.34 c-0.56,2.5-1.81,4.84-3.58,6.7c1.14-2.4,2.28-4.79,3.42-7.19c-3.58-0.31-6.96,1.51-10.09,3.27c-0.25,0.14-0.54,0.37-0.46,0.65 c0.58,1.92,0.56,4.02-0.06,5.93c-0.14,0.43-0.31,0.86-0.39,1.31c-0.08,0.47-0.06,0.94-0.07,1.42c-0.06,2.44-1.09,4.78-2.53,6.75 c-1.44,1.97-3.29,3.6-5.19,5.13c1.06-0.52,2.09-1.12,3.07-1.79c2.19-1.49,4.13-3.32,6.27-4.89c2.14-1.57,4.55-2.9,7.18-3.18 c0.58-0.06,1.39,0.13,1.37,0.71c1.35-0.24,2.82,0.36,3.63,1.47c0.29,0.4,0.87,0.49,1.33,0.34c0.46-0.16,0.83-0.51,1.15-0.88 c1.27-1.48,1.99-3.41,2.01-5.35C120.84,115.58,119.58,116.5,118.18,117.12 M84.83,126.08c-0.77-1.79-2.97-2.63-4.89-2.34 s-3.59,1.5-4.98,2.86c-1.59,1.56-2.98,3.43-3.48,5.6c2.42-3.15,6.09-5.32,10.02-5.92c-0.09,0.42-0.58,0.59-0.99,0.7 c-2.62,0.73-5.07,2.08-7.09,3.91c-0.66,0.6-1.28,1.25-1.75,2c-1.22,1.96-1.34,4.39-1.42,6.7c2.59-3.65,6.33-6.47,10.55-7.95 c-0.04,0.45-0.52,0.71-0.94,0.9c-3.17,1.41-6.01,3.53-8.26,6.17c2.11-0.89,4.56-0.25,6.61,0.76c2.05,1.01,3.94,2.39,6.12,3.08 c0.81,0.26,1.93,0.28,2.26-0.51c0.82-1.99,2.26-3.73,4.07-4.9c-0.83,1.06-1.66,2.12-2.49,3.18c-0.47,0.6-0.97,1.3-0.86,2.06 c0.42,0.52,1.25,0.18,1.8-0.19c0.93-0.62,1.86-1.24,2.79-1.86c0.87-0.58,1.75-1.17,2.38-2c0.63-0.83,0.99-1.94,0.65-2.93 c-0.51-1.49-2.25-2.07-3.68-2.72C88.42,131.36,86.08,128.97,84.83,126.08 M43.36,223.64c-1.17-1.53-1.82-3.38-2.59-5.15 c-3.01-6.94-7.96-13.02-14.14-17.38c-5.05-3.56-11-6.09-14.87-10.9c1.85,2.82,3.7,5.65,5.3,8.61c1.77,3.28,3.24,6.73,5.23,9.88 c1.99,3.15,4.59,6.05,7.98,7.61C34.82,218.4,39.2,220.85,43.36,223.64 M59.34,223.6c2.22-2.62,3.04-6.14,3.38-9.55 c0.7-6.98-0.3-14.12,1.11-21c-1.15,2.32-2.48,4.55-3.97,6.66c-0.82,1.16-1.7,2.29-2.49,3.47c-6,8.92-7.07,20.95-2.72,30.78 C55.21,230.16,56.86,226.53,59.34,223.6 M41.53,246.87c6.34,1.82,12.44,4.52,18.05,7.99c-2.16-3.51-5.3-6.4-8.98-8.26 c-1.33-0.67-2.72-1.21-4.1-1.75c-1.2-0.46-2.4-0.93-3.63-1.29c-5.01-1.44-10.45-1.05-15.34-2.85c2.46,3.45,5.26,6.65,8.34,9.54 c1.1,1.04,2.25,2.04,3.55,2.83c1.78,1.09,3.79,1.74,5.82,2.23c4.63,1.1,9.46,1.35,14.18,0.72c-4.59-3.44-10.03-5.5-15.34-7.64 C43.15,248.01,42.19,247.61,41.53,246.87 M87.25,61.31c0.98-0.06,1.99-0.1,2.92,0.2c0.94,0.3,1.8,0.95,2.8,0.97 c1.06,0.01,2-0.72,2.62-1.58c0.63-0.86,1.04-1.85,1.64-2.72c1.59-2.29,4.58-3.51,7.32-2.99c0.53,0.1,1.17,0.23,1.55-0.15 c-0.76-0.11-1.53-0.22-2.29-0.32c-5.33-0.73-10.73-1.25-16.07-0.63c-8.87,1.02-17.34,5.25-23.47,11.73 c3.01-1.83,6.64-2.62,10.15-2.2c2.79,0.33,5.47,1.4,8.26,1.68c2.8,0.28,6-0.46,7.48-2.85c-4.18-0.45-8.43-0.22-12.54,0.66 c-0.3-0.27,0.22-0.67,0.62-0.74C81.22,61.85,84.23,61.5,87.25,61.31 M26.84,149.67c-0.84-1.55-1.08-3.42-0.65-5.13 c0.92,0.76,1.83,1.51,2.75,2.27c0.84-1.74,0.72-3.82,0.1-5.65c-0.62-1.83-1.71-3.46-2.78-5.07c0.08-0.23,0.42-0.12,0.61,0.04 c1.43,1.2,2.55,2.76,3.24,4.5c0.57-2.4,0.21-5-0.98-7.16c-1.19-2.16-3.2-3.85-5.53-4.65c-0.76-0.26-1.57-0.43-2.37-0.38 c-1.89,0.13-3.49,1.46-4.7,2.91c-0.12,0.14-0.24,0.3-0.25,0.49c-0.01,0.17,0.09,0.33,0.18,0.47c1.23,1.99,2.47,3.98,3.7,5.97 c-1.24-1.59-2.48-3.19-3.72-4.78c-0.37-0.48-0.76-0.97-1.3-1.26c-0.54-0.28-1.27-0.3-1.7,0.13c0.09,3.81,1.88,7.44,4.4,10.31 C20.35,145.56,23.55,147.74,26.84,149.67 M116.94,142.11c0.12,0.31,0.26,0.65,0.57,0.79c0.12,0.05,0.25,0.07,0.38,0.08 c2.07,0.19,4.21-0.41,5.89-1.65c-1.47-1.47-3.21-2.68-5.11-3.55c-0.39-0.18-0.87-0.52-0.69-0.92c2.01,0.65,3.89,1.74,5.46,3.15 c1.01,0.91,2.62,0.84,3.81,0.19c1.19-0.65,2.06-1.75,2.87-2.83c0.77-1.03,1.56-2.38,0.96-3.52c-0.28-0.55-0.83-0.9-1.37-1.21 c-3.19-1.79-6.92-2.6-10.57-2.31c0.17-0.64,0.99-0.8,1.66-0.81c2.25-0.03,4.5,0.28,6.66,0.9c-0.43-1.46-1.69-2.53-3.05-3.21 c-1.36-0.68-2.85-1.05-4.25-1.62c-0.45,1.93-1.26,3.81-2.6,5.27c-1.34,1.46-3.26,2.45-5.24,2.41c-0.43-0.01-0.86-0.06-1.27,0.05 c-0.41,0.11-0.8,0.45-0.8,0.88C113.25,136.03,115.65,138.84,116.94,142.11 M79.84,119.95c-4.69-3.83-7.74-9.61-8.24-15.64 c-0.72,1.38-1.3,2.83-1.74,4.33c-0.44,1.49-0.73,3.13-0.18,4.58c1.39,3.66,7.05,4.13,8.48,7.77c0.19,0.48,0.29,0.99,0.57,1.42 c0.28,0.43,0.82,0.75,1.3,0.58c1.34-0.49,2.87-0.01,4,0.87c1.12,0.88,1.91,2.1,2.68,3.3c-1.9-5.01-2.74-10.42-2.46-15.78 c0.11-2.12-1.78-4.14-3.9-4.13c0.36,2.05,0.72,4.11,1.08,6.16c0.23,1.29,0.46,2.6,1,3.8c0.47,1.06,1.2,2.11,1.02,3.26 c-1.41-2.52-2.39-5.29-2.88-8.14c-0.22-1.25-0.35-2.56-0.97-3.67c-0.58-1.05-1.55-1.83-2.56-2.47c-1.51-0.97-3.18-1.69-4.92-2.13 c0.25,3.49,1.4,6.91,3.31,9.83C76.79,115.97,78.54,117.81,79.84,119.95 M24.81,128.02c0.66-2.45,0.03-5.21-1.62-7.13 c-1.66-1.92-4.29-2.96-6.81-2.67c0.75,0.91,1.5,1.82,2.25,2.73c0.04,0.18-0.2,0.31-0.37,0.26c-0.17-0.05-0.29-0.21-0.4-0.35 c-0.98-1.24-2.55-1.89-4.12-2.08s-3.15,0.03-4.72,0.25c-1.01,0.14-2.07,0.31-2.84,0.97c-0.84,0.73-1.15,1.93-1.06,3.04 c0.09,1.11,0.52,2.16,0.95,3.19c0.12,0.28,0.29,0.6,0.59,0.64c2.49,0.26,4.84,1.65,6.28,3.7c0.49,0.7,1.59,0.68,2.33,0.24 c0.74-0.44,1.25-1.17,1.86-1.77C19.12,127.11,22.4,126.68,24.81,128.02 M54.45,141.4c4.6,3.06,8.21,7.59,10.17,12.76 c0.69-2.88-0.24-5.97-1.89-8.44c-1.65-2.47-3.95-4.41-6.27-6.26c-2.32-1.85-4.7-3.67-6.58-5.96c-0.81-0.99-1.53-2.07-2.12-3.2 c-0.33,2.79,0.56,5.57,1.43,8.24c0.91,2.8,1.84,5.62,3.35,8.14c1.51,2.52,3.69,4.75,6.44,5.78c2.14,0.8,4,2.3,5.24,4.21 C63.26,150.59,58.75,145.79,54.45,141.4 M8.86,138.99c-0.2,0.27-0.62,0.05-0.87-0.17c-2.68-2.39-5.52-5.05-6.13-8.59 c-0.69,1.78-0.33,3.83,0.56,5.52c0.89,1.69,2.25,3.07,3.64,4.38c0.76,0.72,1.55,1.44,2.51,1.83c3.88,1.57,7.77,3.14,11.65,4.72 c-4.68-3.31-7.66-8.91-7.79-14.64c-0.01-0.45-0.31-0.83-0.61-1.16c-1.44-1.54-3.41-2.58-5.49-2.91c-1.44-0.23-3.32,0.18-3.62,1.61 c-0.14,0.65,0.11,1.32,0.38,1.92C4.4,134.4,6.39,136.99,8.86,138.99 M32.73,139.97c-0.01-1.19-0.29-2.39-0.01-3.54 c0.12-0.51,0.36-0.99,0.49-1.5c0.5-1.92-0.45-3.92-0.46-5.91c-0.01-2.18,1.11-4.26,0.97-6.44c-0.13-2.03-1.5-3.95-3.41-4.66 c-1.91-0.71-4.25-0.11-5.51,1.49c-0.4,0.51-0.69,1.27-0.3,1.79c1.25,1.69,1.82,3.87,1.54,5.95c-0.1,0.76-0.2,1.75,0.49,2.09 c2.94,1.45,4.21,5.04,4.27,8.32c0.06,3.28-0.78,6.53-0.75,9.81C31.38,145.07,32.75,142.63,32.73,139.97 M82.88,105.51 c-0.43,0.56-0.08,1.38,0.39,1.9s1.09,0.99,1.25,1.67c1.33-3.31,3.43-6.7,6.84-7.76c1.23-0.38,2.22-1.27,3.34-1.91 c1.11-0.64,2.55-1.03,3.66-0.38c0.26,0.15,0.47-0.26,0.49-0.56c0.09-1.41,0.15-2.84-0.13-4.23c-0.28-1.39-0.95-2.74-2.09-3.58 c-1.93-1.42-4.81-0.97-6.65,0.57c-1.84,1.54-2.79,3.91-3.22,6.27s-0.42,4.78-0.72,7.16c-0.02,0.17-0.13,0.4-0.29,0.34 c-0.03-1.03-0.07-2.05-0.1-3.08C84.72,103.13,83.8,104.32,82.88,105.51 M25.84,150.26c-2.18-1.65-4.8-2.6-7.37-3.52 c-1.72-0.62-3.44-1.23-5.16-1.85c-1.73-0.62-3.47-1.24-5.29-1.52c-1.13-0.17-2.33-0.2-3.38,0.25c-1.05,0.45-1.92,1.48-1.88,2.63 c0.05,1.77,2.01,2.81,3.72,3.25c3.05,0.79,6.26,0.93,9.37,0.4c1.55-0.26,3.14-0.69,4.66-0.3c-1.37,0.26-2.75,0.52-4.12,0.78 C19.51,150.92,22.73,150.88,25.84,150.26 M51.44,45.11c-1.92,2.96-1.79,6.77-1.35,10.27c0.17,1.35,0.38,2.7,0.62,4.05 c2.27-3.37,4.56-6.78,5.97-10.6c0.37-1,0.68-2.06,0.58-3.12c-0.1-1.06-0.69-2.14-1.67-2.54C54.05,42.54,52.34,43.72,51.44,45.11 M59.78,29.9c0.18,0.83,0.32,1.66,0.47,2.49c0.24,1.4,0.48,2.79,0.72,4.19c1.35-2.7,1.51-5.94,0.54-8.8 c-0.97-2.85-3.04-5.3-5.64-6.83c-0.04,3.41-0.33,6.81-0.88,10.18c-0.45,2.74,1.74,5.43,4.39,6.26c0.09,0.03,0.19,0.06,0.28,0.02 c0.17-0.07,0.18-0.3,0.16-0.48c-0.5-4.66-1.01-9.38-2.71-13.75c-0.07-0.19-0.04-0.52,0.16-0.46C58.4,25,59.24,27.42,59.78,29.9 M62.54,173.27c2.23-4.75,2.72-10.29,1.36-15.36c-0.34-1.25-1.27-2.26-2.33-3c-1.06-0.74-2.25-1.26-3.39-1.88 c-0.28,0.18-0.24,0.59-0.17,0.92C59.37,160.42,60.88,166.87,62.54,173.27 M63.76,209.3c-0.03,2.99-0.31,5.97-0.83,8.91 c3.39,3.6,6.32,7.63,8.69,11.96c0.24-1.07,0.22-2.2-0.04-3.27c-0.21-0.84-0.57-1.63-0.92-2.41 C68.35,219.43,66.05,214.37,63.76,209.3 M88.29,118.86c-0.45,1.22-0.97,2.41-1.57,3.56c-0.21-1.12,0.53-2.18,0.94-3.24 c0.51-1.31,0.52-2.81,0.04-4.13c-0.39-1.07-1.09-2.02-1.49-3.08c-0.52-1.37-0.54-2.92-0.05-4.29c-1.48,2.81-1.42,6.16-1.06,9.31 c0.45,3.96,1.31,7.87,2.55,11.65c0.18-1.66,1.12-3.15,1.47-4.78C89.48,122.16,89.18,120.34,88.29,118.86 M71.95,121.14 c1.38,1.45,3.28,2.66,5.27,2.39c0.29-0.04,0.59-0.12,0.76-0.36c0.28-0.4,0.01-0.95-0.28-1.34c-1.41-1.92-3.28-3.5-5.41-4.57 c-1.18-0.59-2.13-1.62-2.61-2.85c-0.03-0.08-0.07-0.18-0.16-0.2c-0.15-0.04-0.23,0.18-0.23,0.33c-0.04,1.91,0.55,3.84,1.66,5.39 C71.25,120.37,71.59,120.76,71.95,121.14 M14.97,96.63c0.03-0.03,0.06-0.07,0.07-0.12c0.02-0.13-0.16-0.19-0.3-0.19 c-0.75-0.01-1.49,0.09-2.23,0.21c-1.6,0.26-3.18,0.64-4.72,1.11c-0.11-0.11-0.23-0.22-0.34-0.33c2.49-1.11,5.22-1.69,7.95-1.67 c0.19,0,0.44-0.21,0.27-0.29c-1.62-0.77-3.5-1-5.26-0.65c-0.65,0.13-1.29,0.34-1.92,0.55c-1.93,0.65-3.85,1.36-5.75,2.11 c1.09,0.34,2.19,0.65,3.29,0.92c1.78,0.43,3.65,0.77,5.43,0.37C12.81,98.35,14.04,97.64,14.97,96.63 M33.76,126.32 c-0.28,1.24-0.57,2.52-0.41,3.78c0.13,0.98,0.52,1.91,0.61,2.89c0.22,2.38-1.3,4.84-0.42,7.06c1.4-3.61,2.12-7.47,2.11-11.34 c0-2.08-0.22-4.2-1.04-6.11C34.32,123.85,34.04,125.08,33.76,126.32 M69.38,34.77c0.2-0.1,0.35-0.28,0.48-0.46 c0.47-0.61,0.94-1.22,1.27-1.91c0.38-0.78,0.59-1.64,0.78-2.49c0.53-2.39,0.98-4.81,1.33-7.23c-1.4,1.96-2.83,4-3.3,6.36 c-0.12,0.6-0.17,1.22-0.23,1.83C69.6,32.17,69.49,33.47,69.38,34.77 M82.32,28.26c-0.71,0.1-1.42,0.15-2.11,0.32 c-2.09,0.52-3.79,2-5.4,3.43c-0.12,0.11-0.26,0.28-0.17,0.42c1.85-0.41,3.66-0.98,5.41-1.7c1.83-0.76,3.61-1.7,5.05-3.06 C84.19,27.94,83.26,28.13,82.32,28.26 M50.62,44.6c-1.72,1.3-2.14,3.66-2.4,5.8c-0.07,0.6-0.14,1.2-0.13,1.8 c0.03,1.18,0.37,2.33,0.71,3.46c0.05,0.16,0.1,0.32,0.15,0.48c0.2,0.67,0.42,1.37,0.92,1.87c-0.17-1.18-0.33-2.36-0.46-3.54 c-0.23-1.98-0.39-3.99-0.01-5.94c0.29-1.48,0.91-2.89,1.79-4.11C50.99,44.36,50.78,44.47,50.62,44.6 M56.75,56.73 c0.1-0.08,0.17-0.19,0.24-0.3c0.8-1.3,1.54-2.67,1.86-4.17c0.19-0.88,0.23-1.79,0.13-2.69c-0.02-0.14-0.08-0.31-0.22-0.29 c-0.11,0.01-0.16,0.15-0.18,0.26c-0.5,2.56-1.8,4.96-3.68,6.77c-0.32,0.31-0.69,0.71-0.55,1.14c0.66-0.18,1.32-0.35,1.97-0.53 C56.47,56.87,56.63,56.83,56.75,56.73 M38.97,196.85c-0.08-0.07-0.17-0.14-0.28-0.14c-0.1,0-0.19,0.06-0.27,0.12 c-0.97,0.72-1.41,2.1-1.03,3.25c0.18,0.56,0.68,1,1.25,1.12c0.36,0.08,0.79,0,0.98-0.31C40.36,199.6,40.07,197.83,38.97,196.85 M27.05,146.33c-0.14-0.01-0.18,0.19-0.16,0.32c0.08,0.6,0.26,1.19,0.5,1.75c0.65,1.51,1.74,2.83,3.1,3.75 c0.1,0.07,0.22,0.14,0.34,0.12c-0.33-1.09-0.67-2.18-1-3.27c-0.07-0.22-0.13-0.44-0.25-0.63c-0.21-0.38-0.58-0.65-0.93-0.9 c-0.49-0.36-0.99-0.72-1.48-1.08C27.14,146.36,27.1,146.33,27.05,146.33 M99.25,99.26c1.06,0.73,1.99,1.66,2.72,2.73 c0.32-2.13-0.46-4.39-2.02-5.88c-0.1-0.09-0.21-0.19-0.34-0.21c-0.13-0.02-0.29,0.09-0.28,0.22c0.03,0.34,0.07,0.67,0.1,1.01 c0.05,0.49,0.1,1.02-0.12,1.46C99.2,98.82,99.05,99.12,99.25,99.26 M41.56,197.63c-0.41-0.23-0.82-0.46-1.24-0.69 c-0.08,0.21,0.02,0.43,0.1,0.64c0.54,1.28,0.45,2.8-0.22,4.01c-0.08,0.15-0.16,0.36-0.02,0.46c0.05,0.04,0.13,0.04,0.19,0.04 c0.62,0.01,1.31-0.1,1.7-0.58c0.14-0.18,0.23-0.4,0.31-0.61c0.35-0.97,0.5-2.2-0.26-2.89C41.95,197.85,41.75,197.74,41.56,197.63 M53.33,57.35c0.77-1.09,1.57-2.15,2.42-3.18c1.55-1.88,2.41-4.3,2.39-6.74c0-0.17-0.06-0.4-0.23-0.41 c-0.2-0.01-0.26,0.27-0.26,0.48c0,0.82-0.31,1.61-0.64,2.36c-0.99,2.28-2.18,4.47-3.55,6.54C53.27,56.69,53.09,57.1,53.33,57.35 M52.1,59.67c0.41-0.16,0.86-0.15,1.3-0.18c0.92-0.06,1.82-0.3,2.65-0.7c0.82-0.4,1.56-0.96,2.29-1.52 c0.14-0.11,0.24-0.38,0.07-0.4c-0.03,0-0.06,0-0.09,0.01c-1.29,0.36-2.57,0.74-3.85,1.14c-0.93,0.29-1.87,0.6-2.63,1.2 c-0.15,0.12-0.29,0.34-0.15,0.47C51.8,59.8,51.96,59.73,52.1,59.67 M30.58,153.18c0.17-0.06,0.03-0.31-0.12-0.4 c-0.84-0.54-1.68-1.07-2.51-1.61c-0.18-0.12-0.37-0.24-0.57-0.31c-0.82-0.31-1.71,0.08-2.5,0.46c0.86,0.79,2.05,1.07,3.19,1.33 c0.8,0.18,1.59,0.36,2.39,0.53C30.49,153.18,30.53,153.19,30.58,153.18 M25.12,162.63c-0.24-0.05-0.61,0.07-0.49,0.28 c0.06,0.11,0.22,0.1,0.35,0.12c0.53,0.07,0.73,0.72,0.8,1.24c0.09,0.6,0.17,1.26-0.15,1.78c-0.07,0.11-0.16,0.25-0.1,0.37 c0.05,0.11,0.2,0.13,0.32,0.12c0.62-0.04,1.21-0.43,1.48-0.99c0.28-0.56,0.23-1.26-0.11-1.78 C26.78,163.09,25.93,162.81,25.12,162.63 M41.91,158.18c-0.38,0.41-0.35,1.09-0.03,1.55c0.32,0.46,0.88,0.71,1.43,0.79 c0.44,0.07,0.92,0.03,1.27-0.24s0.47-0.85,0.15-1.17c-0.04-0.04-0.09-0.08-0.14-0.1c-0.18-0.09-0.4-0.05-0.6-0.05 c-0.45,0-0.89-0.24-1.15-0.61c-0.09-0.13-0.16-0.28-0.3-0.35C42.34,157.89,42.07,158,41.91,158.18 M23.72,165.82 c0.34,0.29,0.86,0.43,1.23,0.17c0.34-0.25,0.4-0.73,0.39-1.16c-0.01-0.29-0.03-0.58-0.14-0.84c-0.19-0.47-0.64-0.82-1.14-0.89 c-0.14-0.02-0.28,0.07-0.39,0.17C22.97,163.92,23,165.19,23.72,165.82 M64.01,199.01c0.28-0.99,0.55-1.98,0.83-2.97 c0.23-0.81,0.21-1.67,0.19-2.51c-0.01-0.4-0.05-0.87-0.39-1.09c-0.46,2.11-0.77,4.26-0.91,6.42c-0.01,0.14,0.07,0.34,0.19,0.28 C63.98,199.12,64,199.06,64.01,199.01 M32.99,172.62c-0.14-0.04-0.29-0.06-0.41,0.01s-0.18,0.26-0.08,0.35 c0.67,0.63,0.84,1.71,0.41,2.52c-0.05,0.1,0.05,0.22,0.16,0.24c0.11,0.01,0.22-0.04,0.31-0.1c0.5-0.29,1.05-0.66,1.1-1.24 c0.02-0.19-0.02-0.38-0.09-0.55C34.15,173.25,33.61,172.79,32.99,172.62 M44.28,158.29c0.26-0.04,0.5-0.14,0.71-0.3 c0.3-0.23,0.07-0.71-0.2-0.96c-0.4-0.38-1.02-0.69-1.49-0.39c-0.38,0.24-0.44,0.82-0.19,1.19 C43.34,158.19,43.83,158.35,44.28,158.29 M49.57,59.16c0.14,0.12,0.39,0.22,0.48,0.06c-0.96-1.48-2.09-2.86-3.36-4.1 c-0.13-0.12-0.28-0.25-0.45-0.24c-0.18,0.01-0.31,0.27-0.17,0.37C47.5,56.27,48.25,58,49.57,59.16 M32.27,175.38 c0.54-0.55,0.48-1.57-0.13-2.04c-0.22-0.17-0.55,0.03-0.7,0.27c-0.31,0.49-0.3,1.19,0.09,1.63 C31.71,175.45,32.07,175.58,32.27,175.38 M45.38,173.78c0.16,0.29,0.56,0.34,0.88,0.29c0.5-0.07,0.97-0.31,1.34-0.65 c-0.13-0.35-0.54-0.51-0.91-0.57c-0.33-0.06-0.69-0.08-0.99,0.08C45.41,173.09,45.22,173.49,45.38,173.78 M44.93,174.71 c0.17,0.49,0.67,0.85,1.19,0.85c0.52,0,1.03-0.35,1.2-0.84c0.01-0.03,0.02-0.07,0.02-0.1c-0.02-0.12-0.18-0.14-0.31-0.13 C46.33,174.57,45.63,174.64,44.93,174.71 M31.11,153.99c0.09,0.15,0.35,0.15,0.44,0C31.46,153.85,31.2,153.85,31.11,153.99 L31.11,153.99z"
          style="fill: inherit;" />
      </g>
    </svg>